<svg xmlns="http://www.w3.org/2000/svg" xmlns:xlink="http://www.w3.org/1999/xlink" width="341" height="437" viewBox="0 0 341 437"><defs><path id="q9mra" d="M1530.634 1186.76c11.236 15.749 7.525 37.662-8.29 48.943-15.813 11.28-37.74 7.658-48.976-8.092-11.236-15.751-7.525-37.664 8.289-48.945 15.813-11.28 37.741-7.658 48.977 8.093zm129.351-78.15c7.227 10.13 4.845 24.221-5.32 31.473-10.166 7.252-24.265 4.918-31.492-5.212-7.226-10.13-4.844-24.221 5.322-31.473 10.165-7.252 24.264-4.918 31.49 5.213zm64.822-7.335c4.014 5.626 2.69 13.454-2.959 17.483-5.648 4.03-13.48 2.734-17.495-2.894-4.014-5.627-2.69-13.455 2.959-17.484 5.648-4.03 13.48-2.733 17.495 2.895zm-128.779-52.833c4.02 5.635 2.704 13.463-2.937 17.488-5.641 4.024-13.472 2.72-17.492-2.914-4.019-5.635-2.704-13.465 2.937-17.49 5.641-4.023 13.473-2.718 17.492 2.916zm205.455 132.66c9.312 13.052 6.245 31.206-6.85 40.547-13.095 9.342-31.259 6.333-40.57-6.72-9.311-13.052-6.244-31.206 6.85-40.548 13.095-9.341 31.26-6.332 40.57 6.72zm-61.175 33.218c29.873 41.876 20.034 100.119-21.976 130.088-42.01 29.968-100.284 20.315-130.157-21.562-29.873-41.877-20.034-100.12 21.976-130.088 42.01-29.969 100.284-20.315 130.157 21.562zm-83.684 173.179c10.487 6.702 13.539 20.66 6.816 31.178-6.722 10.519-20.671 13.612-31.157 6.91-10.486-6.7-13.538-20.66-6.816-31.178 6.722-10.519 20.672-13.611 31.157-6.91zm-70.494 69.39c5.825 3.724 7.52 11.479 3.786 17.322-3.734 5.843-11.484 7.562-17.31 3.84-5.825-3.724-7.52-11.48-3.786-17.323 3.734-5.843 11.484-7.561 17.31-3.839zm141.443-20.47c5.826 3.723 7.52 11.478 3.786 17.32-3.734 5.844-11.484 7.563-17.31 3.84-5.825-3.724-7.52-11.479-3.786-17.322 3.734-5.843 11.484-7.562 17.31-3.839zm-200.177-37.332c13.515 8.638 17.449 26.628 8.785 40.185-8.664 13.557-26.644 17.543-40.16 8.906-13.514-8.638-17.447-26.63-8.783-40.186 8.663-13.556 26.643-17.543 40.158-8.905z"/></defs><g><g transform="translate(-1466 -1043)"><use fill="#f4f7f9" xlink:href="#q9mra"/></g></g></svg>