<svg xmlns="http://www.w3.org/2000/svg" xmlns:xlink="http://www.w3.org/1999/xlink" width="211" height="231" viewBox="0 0 211 231"><defs><path id="106ra" d="M1691.854 6160.452c.004 19.319-15.654 34.976-34.972 34.973-19.319-.004-34.982-15.668-34.986-34.986-.004-19.318 15.654-34.976 34.973-34.972 19.318.003 34.982 15.667 34.985 34.985zm-96.054-68.807c-12.42-.003-22.489-10.073-22.49-22.492-.003-12.419 10.062-22.484 22.481-22.482 12.42.002 22.488 10.072 22.49 22.49.003 12.42-10.062 22.485-22.481 22.484zm-85.948 11.976c-6.9-.002-12.493-5.596-12.495-12.495 0-6.9 5.591-12.49 12.49-12.49 6.9.001 12.494 5.595 12.496 12.495 0 6.899-5.591 12.491-12.49 12.49zm92.926-107.918c-6.9-.002-12.494-5.596-12.495-12.495-.001-6.9 5.59-12.492 12.49-12.491 6.9.002 12.494 5.595 12.495 12.495.001 6.9-5.59 12.492-12.49 12.49zm-92.407 204.86c-16.007-.003-28.985-12.98-28.988-28.987-.003-16.007 12.97-28.98 28.977-28.978 16.006.003 28.984 12.981 28.987 28.988.003 16.006-12.97 28.98-28.976 28.977z"/></defs><g><g transform="translate(-1481 -5970)"><use fill="#fff" xlink:href="#106ra"/></g></g></svg>