<svg xmlns="http://www.w3.org/2000/svg" xmlns:xlink="http://www.w3.org/1999/xlink" width="320" height="240" viewBox="0 0 320 240"><defs><path id="kxoja" d="M883.198 6260.167c-13.661-13.656-13.661-35.796 0-49.452 13.661-13.655 35.811-13.656 49.473 0 13.66 13.656 13.66 35.796 0 49.452-13.662 13.656-35.811 13.656-49.473 0zm-108.933 14.904c13.662-13.657 35.811-13.657 49.473-.001 13.661 13.655 13.661 35.797 0 49.453-13.662 13.655-35.812 13.656-49.473 0-13.661-13.656-13.66-35.797 0-49.452zm225.497-34.168c8.783-8.779 23.022-8.778 31.804 0 8.782 8.78 8.783 23.013 0 31.792-8.782 8.778-23.021 8.778-31.803 0-8.783-8.78-8.783-23.013 0-31.792zm52.3-69.233c4.88-4.877 12.79-4.877 17.669 0 4.879 4.877 4.88 12.785 0 17.661-4.88 4.877-12.79 4.877-17.669 0-4.879-4.876-4.879-12.784 0-17.661zm10.6 142c4.88-4.878 12.79-4.878 17.67 0 4.879 4.876 4.879 12.784 0 17.661-4.88 4.877-12.79 4.877-17.67 0-4.878-4.877-4.878-12.785 0-17.662zm-79.508-210.174c11.32-11.314 29.672-11.314 40.991 0 11.32 11.316 11.32 29.66 0 40.976-11.32 11.315-29.671 11.314-40.99 0-11.32-11.316-11.32-29.66-.001-40.976z"/></defs><g><g transform="translate(-764 -6095)"><use fill="#fff" xlink:href="#kxoja"/></g></g></svg>