<svg xmlns="http://www.w3.org/2000/svg" xmlns:xlink="http://www.w3.org/1999/xlink" width="393" height="292" viewBox="0 0 393 292"><defs><path id="n0ega" d="M1386.33 316.447c-3.75 3.742-9.836 3.738-13.591-.009-3.755-3.746-3.76-9.817-.008-13.56 3.75-3.742 9.836-3.737 13.591.01 3.755 3.746 3.76 9.817.009 13.559zm21.667-42.638c-8.702 8.681-22.814 8.678-31.52-.008-8.707-8.687-8.711-22.766-.01-31.448 8.703-8.681 22.815-8.677 31.522.009 8.706 8.686 8.71 22.765.008 31.447zm-17.521-145.385c-6.755-6.738-6.757-17.66-.007-24.395 6.75-6.735 17.698-6.731 24.452.007 6.755 6.739 6.757 17.66.007 24.395-6.75 6.735-17.698 6.732-24.452-.007zm131.317 59.654c-3.753-3.744-3.754-9.811-.004-13.553 3.75-3.741 9.832-3.74 13.585.004 3.752 3.744 3.753 9.812.003 13.553-3.75 3.741-9.832 3.74-13.584-.004zm-80.927 67.284c-8.706-8.685-8.71-22.762-.009-31.443 8.7-8.68 22.81-8.676 31.516.01 8.705 8.684 8.709 22.762.008 31.442-8.7 8.68-22.81 8.676-31.515-.009zm90.08-155.904c.007 14.816-12.043 26.822-26.913 26.814-14.871-.006-26.932-12.023-26.939-26.84-.008-14.816 12.042-26.82 26.913-26.814 14.871.007 26.932 12.024 26.939 26.84zm58.38 195.732c.007 14.81-12.042 26.81-26.913 26.802-14.871-.006-26.931-12.018-26.939-26.827-.007-14.81 12.042-26.81 26.914-26.802 14.87.006 26.931 12.018 26.938 26.827zm-115.335-131.573c.004 9.518-7.743 17.23-17.306 17.226-9.562-.005-17.317-7.724-17.322-17.242-.004-9.518 7.744-17.23 17.306-17.226 9.562.005 17.317 7.724 17.322 17.242zm-110.74-9.147c.002 5.291-4.304 9.578-9.62 9.576-5.315-.002-9.626-4.294-9.629-9.585-.002-5.292 4.305-9.58 9.62-9.577 5.316.003 9.626 4.295 9.629 9.586zm28.457 44.343c.003 5.292-4.3 9.58-9.608 9.576-5.308-.002-9.614-4.294-9.616-9.585-.003-5.291 4.298-9.579 9.607-9.576 5.309.002 9.615 4.294 9.617 9.585zm345.286-90.688c.006 12.276-9.979 22.224-22.301 22.218-12.323-.006-22.317-9.962-22.323-22.239-.006-12.276 9.979-22.222 22.302-22.217 12.322.006 22.317 9.962 22.322 22.238zm-29.25 76.772c.019 39.362-32 71.255-71.517 71.237-39.516-.02-71.565-31.943-71.584-71.305-.018-39.361 32-71.256 71.517-71.237 39.516.019 71.565 31.943 71.584 71.305zm-82.867-96.55c-14.87-.007-26.93-12.022-26.938-26.836-.007-14.814 12.042-26.817 26.913-26.81 14.87.007 26.93 12.022 26.938 26.836.007 14.814-12.043 26.817-26.913 26.81zm-86.554-23.856c-9.56-.005-17.312-7.729-17.317-17.252-.005-9.523 7.74-17.24 17.3-17.235 9.56.004 17.313 7.728 17.317 17.251.005 9.523-7.74 17.24-17.3 17.236zm26.135 55.22c-5.311-.003-9.618-4.294-9.62-9.584-.003-5.291 4.3-9.578 9.61-9.576 5.312.003 9.618 4.294 9.622 9.585.002 5.29-4.301 9.578-9.612 9.574zm-66.93 162.891c-5.311-.002-9.618-4.293-9.62-9.584-.003-5.29 4.3-9.578 9.61-9.575 5.312.002 9.619 4.293 9.622 9.584.002 5.291-4.301 9.578-9.612 9.575z"/></defs><g><g transform="translate(-1344 -30)"><use fill="#fff" xlink:href="#n0ega"/></g></g></svg>