<svg xmlns="http://www.w3.org/2000/svg" xmlns:xlink="http://www.w3.org/1999/xlink" width="54" height="57" viewBox="0 0 54 57"><defs><path id="ih3xa" d="M1229.997 1795.5v5.681h-1.149v5.682c0 .626-.514 1.136-1.149 1.136-.634 0-1.149-.51-1.149-1.136v-5.682h-2.297v5.682c0 .626-.515 1.136-1.149 1.136-.635 0-1.149-.51-1.149-1.136v-5.682h-2.298v5.682c0 .626-.514 1.136-1.149 1.136-.634 0-1.149-.51-1.149-1.136v-5.682h-2.297v5.682c0 .626-.515 1.136-1.15 1.136-.634 0-1.148-.51-1.148-1.136v-5.682h-2.298v5.682c0 .626-.514 1.136-1.149 1.136h-9.19c-.635 0-1.15-.51-1.15-1.136 0-.628.515-1.136 1.15-1.136h8.041v-4.546h-1.148v-5.68c.003-3.137 2.573-5.679 5.744-5.683h2.298v-35.507c.002-1.828 1.5-3.31 3.349-3.313h.195c1.849.003 3.346 1.485 3.349 3.313v35.507h2.298c3.17.004 5.74 2.546 5.744 5.682zm-12.638-5.682h2.298v-35.507a1.048 1.048 0 0 0-1.051-1.04h-.195c-.58.002-1.05.465-1.052 1.04zm10.34 5.682c0-1.883-1.543-3.408-3.446-3.408h-11.489c-1.904 0-3.447 1.525-3.447 3.408v3.408h18.382zm-31.02 11.363c0 .626-.514 1.136-1.148 1.136h-4.596c-.634 0-1.149-.51-1.149-1.136 0-.628.515-1.136 1.15-1.136h4.595c.634 0 1.149.508 1.149 1.136zm16.085-43.18c0 .628-.514 1.137-1.149 1.137-1.903 0-3.447 1.526-3.447 3.409 0 .628-.514 1.136-1.148 1.136a1.143 1.143 0 0 1-1.15-1.136c0-1.883-1.542-3.41-3.446-3.41a1.142 1.142 0 0 1-1.149-1.135c0-.627.515-1.137 1.149-1.137 1.904 0 3.447-1.525 3.447-3.408 0-.628.514-1.136 1.149-1.136.634 0 1.148.508 1.148 1.136 0 1.883 1.544 3.408 3.447 3.408.635 0 1.149.51 1.149 1.137zm-4.596 0a5.786 5.786 0 0 1-1.148-1.136 5.79 5.79 0 0 1-1.15 1.137c.435.323.822.706 1.15 1.136a5.8 5.8 0 0 1 1.148-1.136zm-27.573-.092c1.27 0 2.298 1.017 2.298 2.272 0 1.256-1.029 2.273-2.298 2.273-1.269 0-2.297-1.017-2.297-2.273 0-1.255 1.028-2.272 2.297-2.272zm18.382 20.453h-.021c.007.046.011.093.012.14l-2.297 18.18c-.072.57-.56.996-1.14.996h-16.084c-.58 0-1.068-.427-1.14-.995l-2.298-18.18a1.17 1.17 0 0 1 .013-.141H1176v-3.409c0-6.276 5.143-11.363 11.489-11.363 6.345 0 11.488 5.087 11.488 11.363zm-2.45 1.136h-2.145v2.272c0 1.883-1.543 3.41-3.447 3.41-1.903 0-3.446-1.527-3.446-3.41v-2.272h-9.039l2.011 15.907h14.055zm-6.74-1.136v3.408c0 .628.514 1.136 1.148 1.136.635 0 1.15-.508 1.15-1.136v-5.68c0-.628-.515-1.137-1.15-1.137h-2.297c-.331.002-.644.146-.859.395a1.195 1.195 0 0 1-1.73 0 1.141 1.141 0 0 0-.858-.395h-2.298c-.634 0-1.149.509-1.149 1.136 0 .629.515 1.137 1.15 1.137h5.744c.634 0 1.148.508 1.148 1.136zm6.893-3.409c-.006-5.018-4.118-9.084-9.191-9.09-5.074.006-9.186 4.072-9.191 9.09v2.273h1.36a3.334 3.334 0 0 1-.211-1.137c0-1.882 1.543-3.409 3.446-3.409h2.298c.606.001 1.2.161 1.723.465a3.438 3.438 0 0 1 1.724-.465h2.297c1.904 0 3.447 1.527 3.447 3.41v1.136h2.298z"/></defs><g><g transform="translate(-1176 -1751)"><use fill="#9295a3" xlink:href="#ih3xa"/></g></g></svg>