<svg xmlns="http://www.w3.org/2000/svg" xmlns:xlink="http://www.w3.org/1999/xlink" width="49" height="41" viewBox="0 0 49 41"><defs><path id="mzvaa" d="M1213.421 2043.726c.147.882.18 1.779.102 2.67-.515 5.798-5.613 10.08-11.386 9.562-5.774-.516-10.038-5.636-9.523-11.434h-9.264a.819.819 0 0 1-.817-.82v-.82h-5.716a.819.819 0 0 1-.817-.82v-9.84c0-.454.366-.821.817-.821h6.195l1.3-1.306 1.574-3.162a.817.817 0 0 1 .73-.454h5.998a10.581 10.581 0 0 1 .103-2.696c.96-5.74 6.375-9.613 12.092-8.647 5.717.965 9.573 6.401 8.612 12.143l-1.121 6.758a8.905 8.905 0 0 0 0 2.93zm-13.738-.841v-1.642h-9.8a.818.818 0 0 1-.816-.82c0-.452.365-.82.816-.82h9.8v-1.64h-9.8a.818.818 0 0 1-.816-.82c0-.453.365-.82.816-.82h9.8v-1.64h-9.8a.819.819 0 0 1-.816-.82c0-.453.365-.82.816-.82h9.8v-1.64h-9.8a.819.819 0 0 1-.816-.82c0-.454.365-.82.816-.82h4.9v-1.64h-7.662l-1.407 2.826a.856.856 0 0 1-.153.214l-1.634 1.64a.814.814 0 0 1-.577.24h-5.717v8.2h5.717c.451 0 .816.368.816.821v.82zm12.129 1.11l-1.122-6.758a10.553 10.553 0 0 1 0-3.468l1.122-6.758a8.928 8.928 0 0 0-3.016-8.258 8.845 8.845 0 0 0-12.501 1.037 8.905 8.905 0 0 0-2.04 6.691h1.345c.45 0 .816.368.816.821v2.46h4.084c.45 0 .817.367.817.82v13.122c0 .453-.366.82-.817.82h-6.247a8.936 8.936 0 0 0 .072 2.412c.81 4.849 5.38 8.122 10.208 7.31 4.829-.813 8.087-5.403 7.279-10.252zm-3.962-22.434a2.455 2.455 0 0 1-2.45 2.46 2.455 2.455 0 0 1-2.45-2.46 2.456 2.456 0 0 1 2.45-2.46 2.456 2.456 0 0 1 2.45 2.46zm-1.634 0a.818.818 0 0 0-.816-.82.818.818 0 0 0-.817.82c0 .453.366.82.817.82a.818.818 0 0 0 .816-.82zm-4.083 3.28a2.456 2.456 0 0 1-2.45 2.462 2.456 2.456 0 0 1-2.45-2.461 2.455 2.455 0 0 1 2.45-2.46 2.455 2.455 0 0 1 2.45 2.46zm-1.633 0a.819.819 0 0 0-.817-.82.819.819 0 0 0-.816.82c0 .453.365.82.816.82.451 0 .817-.367.817-.82zm8.167 18.044a2.456 2.456 0 0 1-2.45 2.46 2.456 2.456 0 0 1-2.45-2.46 2.456 2.456 0 0 1 2.45-2.461 2.456 2.456 0 0 1 2.45 2.46zm-1.634 0a.818.818 0 0 0-.817-.82.818.818 0 0 0-.816.82c0 .452.366.82.816.82a.818.818 0 0 0 .817-.82zm-7.35 5.74v1.64c0 .453-.366.82-.816.82a.819.819 0 0 1-.817-.82v-1.64c0-.453.366-.82.817-.82.45 0 .816.367.816.82zm3.267-.82v1.64c0 .453-.366.82-.817.82a.818.818 0 0 1-.816-.82v-1.64c0-.453.365-.82.816-.82.451 0 .817.367.817.82zm5.717-16.402v1.64c0 .452-.366.82-.817.82a.819.819 0 0 1-.817-.82v-1.64c0-.454.366-.82.817-.82.45 0 .817.366.817.82zm16.333-13.942c0 .453-.366.82-.817.82h-10.617a.818.818 0 0 1-.816-.82c0-.453.366-.82.816-.82h10.617c.451 0 .817.367.817.82zm-7.35 3.28c0 .453-.366.82-.817.82h-1.633a.819.819 0 0 1-.817-.82c0-.452.366-.82.817-.82h1.633c.451 0 .817.368.817.82zm7.35 0c0 .453-.366.82-.817.82h-4.083a.819.819 0 0 1-.817-.82c0-.452.366-.82.817-.82h4.083c.451 0 .817.368.817.82zm0 30.344c0 .453-.366.82-.817.82h-9.8a.818.818 0 0 1-.817-.82c0-.452.366-.82.817-.82h9.8c.451 0 .817.368.817.82zm-10.617 3.28c0 .453-.365.82-.817.82h-1.633a.819.819 0 0 1-.816-.82c0-.452.365-.82.816-.82h1.633c.452 0 .817.368.817.82zm10.617 0c0 .453-.366.82-.817.82h-7.35a.819.819 0 0 1-.816-.82c0-.452.365-.82.816-.82h7.35c.451 0 .817.368.817.82zm0-26.242c0 .452-.366.82-.817.82a2.456 2.456 0 0 0-2.45 2.46c0 .453-.365.82-.816.82a.819.819 0 0 1-.817-.82 2.456 2.456 0 0 0-2.45-2.46.818.818 0 0 1-.817-.82c0-.453.366-.82.817-.82a2.456 2.456 0 0 0 2.45-2.461c0-.453.365-.82.817-.82.45 0 .816.367.816.82a2.456 2.456 0 0 0 2.45 2.46c.451 0 .817.368.817.82zm-3.267 0a4.172 4.172 0 0 1-.816-.82c-.233.31-.508.585-.817.82.31.234.584.51.817.82.232-.312.507-.588.816-.82zm.817 12.3c0 .453-.366.82-.817.82a2.456 2.456 0 0 0-2.45 2.461c0 .453-.365.82-.816.82a.819.819 0 0 1-.817-.82 2.456 2.456 0 0 0-2.45-2.46.818.818 0 0 1-.817-.82c0-.453.366-.82.817-.82a2.455 2.455 0 0 0 2.45-2.461.818.818 0 1 1 1.633 0c0 1.36 1.097 2.46 2.45 2.46.451 0 .817.368.817.82zm-3.267 0a4.091 4.091 0 0 1-.817-.82c-.232.312-.507.588-.816.82.309.235.584.51.816.82a4.16 4.16 0 0 1 .817-.82z"/></defs><g><g transform="translate(-1176 -2015)"><use fill="#9295a3" xlink:href="#mzvaa"/></g></g></svg>