<svg xmlns="http://www.w3.org/2000/svg" xmlns:xlink="http://www.w3.org/1999/xlink" width="46" height="46" viewBox="0 0 46 46"><defs><path id="tggta" d="M812 2035.998c0 6.144-2.393 11.92-6.737 16.264A22.852 22.852 0 0 1 789 2059a22.852 22.852 0 0 1-16.264-6.737 22.852 22.852 0 0 1-6.736-16.264 22.853 22.853 0 0 1 6.736-16.264A22.854 22.854 0 0 1 789 2013c6.143 0 11.92 2.392 16.263 6.735a22.853 22.853 0 0 1 6.737 16.264zm-1.797 0c0-11.69-9.512-21.202-21.203-21.202-11.692 0-21.203 9.511-21.203 21.202 0 11.692 9.511 21.204 21.203 21.204 11.691 0 21.203-9.512 21.203-21.204zm-2.86-2.635a.898.898 0 0 1-1.052-.712 17.591 17.591 0 0 0-10.3-12.82.899.899 0 0 1 .714-1.648 19.384 19.384 0 0 1 11.35 14.128.898.898 0 0 1-.712 1.052zm-13.49-15.248a.899.899 0 0 1-1.073.681l-.01-.003a.898.898 0 1 1 .378-1.756l.023.005c.485.108.79.588.682 1.073zm-11.16 35.313a.899.899 0 0 1-1.175.482 19.511 19.511 0 0 1-7.537-5.621 19.402 19.402 0 0 1-4.037-8.603.9.9 0 0 1 1.764-.34 17.564 17.564 0 0 0 10.504 12.907c.457.19.673.717.482 1.175zm3.226.845a.898.898 0 0 1-1.069.687l-.063-.013a.9.9 0 0 1 .39-1.755l.055.013a.897.897 0 0 1 .687 1.068zm22.042-14.124a19.32 19.32 0 0 1-5.4 9.731 19.314 19.314 0 0 1-9.873 5.174.9.9 0 0 1-.34-1.764 17.564 17.564 0 0 0 13.857-13.523.898.898 0 1 1 1.756.382zm-22.31-21.441a17.561 17.561 0 0 0-13.857 13.523.898.898 0 1 1-1.756-.383 19.324 19.324 0 0 1 5.401-9.731 19.314 19.314 0 0 1 9.873-5.174.898.898 0 1 1 .34 1.765zm6.404 17.29a3.058 3.058 0 0 1-3.055 3.056 3.06 3.06 0 0 1-2.92-2.158h-3.34a.898.898 0 1 1 0-1.795h3.34a3.067 3.067 0 0 1 2.021-2.022v-7.652a.899.899 0 0 1 1.797 0v7.652a3.06 3.06 0 0 1 2.157 2.92zm-1.797 0a1.26 1.26 0 0 0-1.258-1.258 1.26 1.26 0 0 0-1.258 1.258 1.26 1.26 0 0 0 1.258 1.258 1.26 1.26 0 0 0 1.258-1.258zm-.346-18.508v2.014a.9.9 0 0 1-1.797 0v-2.014a.899.899 0 0 1 1.797 0zm-.027 34.363v2.654a.9.9 0 0 1-1.797 0v-2.654a.899.899 0 0 1 1.797 0zm18.521-15.841a.898.898 0 0 1-.898.898h-2.426a.898.898 0 1 1 0-1.797h2.426c.496 0 .898.403.898.899zm-34.41-.026a.899.899 0 0 1-.898.897h-2.606a.899.899 0 0 1 0-1.796h2.606c.496 0 .898.401.898.899z"/></defs><g><g transform="translate(-766 -2013)"><use fill="#9295a3" xlink:href="#tggta"/></g></g></svg>