<svg xmlns="http://www.w3.org/2000/svg" xmlns:xlink="http://www.w3.org/1999/xlink" width="46" height="60" viewBox="0 0 46 60"><defs><path id="l18pa" d="M812 1770.998v6a1 1 0 0 1-1 1h-1.064L808 1807.063a1.001 1.001 0 0 1-1 .935h-36a1.001 1.001 0 0 1-1-.935l-1.936-29.065H767a1 1 0 0 1-1-1v-6a1 1 0 0 1 1-1h1v-3c.017-8.605 6.455-15.843 15-16.863v-1.137a1 1 0 0 1 1-1h10a1 1 0 0 1 1 1v1.137c8.544 1.02 14.983 8.258 15 16.863v3h1a1 1 0 0 1 1 1zm-27-19h8v-2h-8zm-15 18h2.08a7 7 0 0 1 6.92-6h1.07a7.01 7.01 0 0 1 6.93-6h4a7.01 7.01 0 0 1 6.929 6h1.07a3.006 3.006 0 0 1 2.86 2.093 4.008 4.008 0 0 1 3.14 3.907h3v-3a15.018 15.018 0 0 0-13-14.853v.853a1 1 0 0 1-1 1h-10a1 1 0 0 1-1-1v-.853a15.018 15.018 0 0 0-13 14.853zm29 1v9a2 2 0 0 0 4 0v-10a2 2 0 0 0-2-2 1 1 0 0 1-1-1 1 1 0 0 0-1-1h-2a1 1 0 0 1-1-1 5.008 5.008 0 0 0-5-5h-4a5.008 5.008 0 0 0-5 5 1 1 0 0 1-1 1h-2a5.009 5.009 0 0 0-4.9 4H788a1 1 0 0 1 1 1v15a2 2 0 1 0 4 0v-15a1 1 0 0 1 1-1h4a1 1 0 0 1 1 1zm-4 1v4h2v-4zm-8 4v-4h-19v4zm20.93 2H805v2a4 4 0 0 1-4 3.999 4 4 0 0 1-4-3.999v-2h-2v8a4 4 0 1 1-8 0v-8h-16.931l1.867 28h34.128zm2.07-6h-5v4h5zm-17-9a1 1 0 0 1-1 1h-2a1 1 0 1 1 0-2h2a1 1 0 0 1 1 1zm-4 4a1 1 0 0 1-1 1h-2a1 1 0 1 1 0-2h2a1 1 0 0 1 1 1zm-12 36a1 1 0 0 1-1 1h-2a1 1 0 0 1 0-2h2a1 1 0 0 1 1 1zm27 0a1 1 0 0 1-1 1h-23a1 1 0 0 1 0-2h23a1 1 0 0 1 1 1zm-10-8a3 3 0 1 1-6 0 3 3 0 0 1 6 0zm-2 0a1 1 0 1 0-2-.001 1 1 0 0 0 2 .001z"/></defs><g><g transform="translate(-766 -1748)"><use fill="#9295a3" xlink:href="#l18pa"/></g></g></svg>