<svg xmlns="http://www.w3.org/2000/svg" xmlns:xlink="http://www.w3.org/1999/xlink" width="22" height="24" viewBox="0 0 22 24"><defs><path id="g2i9a" d="M1642.292 565.933a.886.886 0 0 1-.292.047.888.888 0 0 1-.293-.047c-10.707-3.472-10.54-11.703-10.417-17.711.014-.65.026-1.26.026-1.849 0-.462.4-.837.895-.837 3.825 0 6.737-1.027 9.165-3.238a.94.94 0 0 1 1.247 0c2.428 2.21 5.34 3.238 9.166 3.238.494 0 .895.375.895.837 0 .589.012 1.196.026 1.849.122 6.008.29 14.24-10.418 17.711zm8.629-17.684c-.008-.361-.015-.708-.02-1.056-3.583-.138-6.448-1.16-8.901-3.155-2.453 1.995-5.318 3.014-8.901 3.155-.005.348-.012.695-.02 1.056-.123 6.043-.262 12.882 8.92 16.006 9.184-3.124 9.045-9.963 8.922-16.006zm-4.576 2.863c.35.325.35.858 0 1.18l-4.95 4.64a.945.945 0 0 1-.633.244.945.945 0 0 1-.632-.244l-2.475-2.32a.8.8 0 0 1 0-1.183.935.935 0 0 1 1.265 0l1.842 1.725 4.318-4.042a.938.938 0 0 1 1.265 0z"/></defs><g><g transform="translate(-1631 -542)"><use fill="#3c3f52" xlink:href="#g2i9a"/></g></g></svg>