<svg xmlns="http://www.w3.org/2000/svg" xmlns:xlink="http://www.w3.org/1999/xlink" width="48" height="42" viewBox="0 0 48 42"><defs><path id="bt2ia" d="M1334.491 1092.036l-2.456-2.517a1.649 1.649 0 0 0-1.228-.518c-.482 0-.892.172-1.228.518l-11.848 12.164-5.31-5.462a1.65 1.65 0 0 0-1.228-.519 1.65 1.65 0 0 0-1.228.52l-2.456 2.517a1.735 1.735 0 0 0-.506 1.26c0 .493.168.912.506 1.257l6.537 6.703 2.457 2.518a1.65 1.65 0 0 0 1.228.519 1.65 1.65 0 0 0 1.228-.519l2.456-2.518 13.076-13.404c.337-.346.506-.765.506-1.259 0-.493-.17-.914-.506-1.26z"/><mask id="bt2ic" width="2" height="2" x="-1" y="-1"><path fill="#fff" d="M1307 1089h28v22h-28z"/><use xlink:href="#bt2ia"/></mask><filter id="bt2ib" width="74" height="71" x="1284" y="1066" filterUnits="userSpaceOnUse"><feOffset dy="3" in="SourceGraphic" result="FeOffset1023Out"/><feGaussianBlur in="FeOffset1023Out" result="FeGaussianBlur1024Out" stdDeviation="5.2 5.2"/></filter><linearGradient id="bt2id" x1="1335" x2="1307" y1="1101" y2="1099" gradientUnits="userSpaceOnUse"><stop offset="0" stop-color="#87c232"/><stop offset="1" stop-color="#d2f568"/></linearGradient></defs><g><g transform="translate(-1297 -1082)"><g filter="url(#bt2ib)"><use fill="none" stroke-opacity=".57" stroke-width="0" mask="url(&quot;#bt2ic&quot;)" xlink:href="#bt2ia"/><use fill="#a4e267" fill-opacity=".57" xlink:href="#bt2ia"/></g><use xlink:href="#bt2ia"/><use fill="url(#bt2id)" xlink:href="#bt2ia"/></g></g></svg>