<svg xmlns="http://www.w3.org/2000/svg" xmlns:xlink="http://www.w3.org/1999/xlink" width="18" height="20" viewBox="0 0 18 20"><defs><path id="50u6a" d="M1662.455 396.117c.38.469.545.988.48 1.503-.065.514-.351.981-.83 1.363-.208.163-.42.319-.626.467-.302.223-.59.43-.846.663-.005.007-.014.01-.02.018-.739.61-1.614.856-2.606.736-.085-.007-.18-.025-.269-.039-1.46-.266-2.708-.957-3.638-1.53a20.007 20.007 0 0 1-6.075-5.898c-1.32-1.984-2.145-3.788-2.61-5.689-.19-.774-.415-1.946-.158-3.147a3.066 3.066 0 0 1 1.176-1.824l1.639-1.25c.005-.002.005-.002.01-.008.48-.345 1.012-.497 1.535-.433.524.058.994.33 1.36.78.247.282.484.58.709.868.111.149.232.299.348.442l1.028 1.277c.79.975.647 2.107-.365 2.872-.135.101-.27.208-.405.308-.357.275-.724.56-1.115.83.19.593.48 1.188.934 1.907.94 1.446 1.964 2.601 3.135 3.539.115.085.252.176.397.265.1.07.205.136.31.209l1.52-1.148c.487-.369 1.021-.529 1.549-.466.532.064 1.005.347 1.368.817zm-.923.69l-2.074-2.572-.007-.008c-.115-.159-.314-.346-.58-.378-.27-.03-.523.108-.687.236l-1.647 1.244c-.082.062-.332.253-.688.21a.947.947 0 0 1-.412-.154c-.016-.01-.032-.026-.048-.036a5.045 5.045 0 0 0-.396-.269c-.161-.105-.33-.214-.493-.342-1.27-1.01-2.379-2.256-3.384-3.81l-.003-.007c-.55-.876-.894-1.6-1.108-2.353l-.008-.039c-.048-.242-.072-.602.342-.915.006-.007.015-.012.024-.02.415-.277.8-.569 1.206-.882.139-.101.274-.208.414-.315.51-.386.562-.794.163-1.288l-1.027-1.272c-.12-.155-.24-.304-.357-.452a20.586 20.586 0 0 0-.677-.836l-.012-.015c-.12-.152-.319-.332-.59-.367-.218-.026-.454.056-.689.22l-1.642 1.243c-.4.303-.644.684-.748 1.163-.161.755-.118 1.576.15 2.661.433 1.77 1.211 3.464 2.457 5.347a18.952 18.952 0 0 0 5.723 5.552c.836.518 1.959 1.141 3.223 1.37.063.009.132.019.197.025.669.082 1.206-.068 1.696-.466.305-.27.622-.509.933-.731.207-.154.399-.29.588-.443-.005.001-.004-.001 0 0 .493-.39.549-.828.16-1.302z"/></defs><g><g transform="translate(-1645 -381)"><use fill="#3c3f52" xlink:href="#50u6a"/></g></g></svg>