<svg xmlns="http://www.w3.org/2000/svg" xmlns:xlink="http://www.w3.org/1999/xlink" width="18" height="24" viewBox="0 0 18 24"><defs><path id="sznra" d="M1661 321.28v4.168c0 .3-.238.54-.532.54h-16.936a.536.536 0 0 1-.532-.54v-4.168c0-2.005 1.572-3.64 3.53-3.708.018-.003 2.74.081 3.145-2.885-1.321-.934-2.29-2.648-2.554-4.712a.576.576 0 0 1-.125-.188 6.337 6.337 0 0 1-.27-.83c-.339-1.345-.235-2.741.292-3.924.543-1.217 1.467-2.073 2.603-2.406.238-.07.486-.117.738-.137a4.605 4.605 0 0 1 2.088-.501c2.766 0 5.016 2.464 5.016 5.491 0 .79-.15 1.55-.444 2.264a.532.532 0 0 1-.134.19c-.163 1.324-.62 2.547-1.33 3.524a5.38 5.38 0 0 1-1.23 1.235c.405 2.958 3.127 2.876 3.145 2.879 1.958.069 3.53 1.703 3.53 3.708zm-13.256-12.65a5.027 5.027 0 0 0 1.205-2.187.654.654 0 0 1 .592-.496.648.648 0 0 1 .645.413.99.99 0 0 0 .328.43.952.952 0 0 0 .593.2h3.628a2.31 2.31 0 0 1 1.658.706c.004-.071.006-.143.006-.216 0-2.433-1.773-4.413-3.952-4.413-.587 0-1.158.149-1.697.436a.53.53 0 0 1-.223.061c-.21.008-.416.043-.61.099-1.742.513-2.708 2.73-2.173 4.967zm4.257 5.746c2.143 0 3.887-2.483 3.887-5.533v-.01a1.263 1.263 0 0 0-1.153-.762h-3.628a2.028 2.028 0 0 1-1.395-.553 6.122 6.122 0 0 1-1.549 2.204c.144 1.27.598 2.429 1.29 3.29.71.878 1.615 1.364 2.548 1.364zm-2.872 3.392l2.797 4.044a.09.09 0 0 0 .075.039.09.09 0 0 0 .075-.04l2.796-4.043a4.233 4.233 0 0 1-1.548-2.546 3.873 3.873 0 0 1-1.323.236 3.83 3.83 0 0 1-1.324-.24 4.242 4.242 0 0 1-1.548 2.55zm10.806 7.138v-3.627c0-1.448-1.162-2.629-2.59-2.629-.02 0-.78 0-1.552-.33l-2.845 4.113c-.217.31-.57.497-.947.497s-.73-.186-.947-.497l-2.846-4.118c-.677.315-1.534.335-1.553.335-1.428 0-2.59 1.181-2.59 2.63v3.626z"/></defs><g><g transform="translate(-1643 -302)"><use fill="#3c3f52" xlink:href="#sznra"/></g></g></svg>