<svg xmlns="http://www.w3.org/2000/svg" xmlns:xlink="http://www.w3.org/1999/xlink" width="846" height="618" viewBox="0 0 846 618"><defs><path id="lycua" d="M1177.343 7235.484c-12.353-7.135-16.596-22.921-9.477-35.258 7.12-12.337 22.905-16.554 35.258-9.418 12.353 7.136 16.596 22.922 9.477 35.259-7.12 12.337-22.904 16.553-35.258 9.417zm302.373 376.89c-12.338-7.128-16.568-22.907-9.45-35.244 7.12-12.337 22.893-16.56 35.23-9.433 12.338 7.127 16.569 22.905 9.45 35.242-7.12 12.338-22.892 16.56-35.23 9.434zm340.75-527.205c-22.22-12.835-29.842-41.237-17.03-63.44 12.812-22.205 41.208-29.801 63.427-16.966 22.217 12.834 29.84 41.237 17.027 63.44-12.812 22.203-41.208 29.8-63.425 16.966zm-86.133 192.62c-12.343-7.13-16.579-22.909-9.46-35.244 7.117-12.335 22.893-16.555 35.236-9.425 12.343 7.13 16.578 22.91 9.46 35.245-7.118 12.336-22.894 16.555-35.236 9.424zm-392.371-206.924c-12.343-7.13-16.579-22.91-9.46-35.245 7.117-12.335 22.893-16.555 35.236-9.425 12.343 7.13 16.579 22.91 9.46 35.245-7.117 12.335-22.893 16.555-35.236 9.425zm494.58 436.217c12.927 22.388 5.27 51.009-17.102 63.924-22.372 12.916-50.987 5.236-63.914-17.152-12.927-22.39-5.27-51.009 17.102-63.925 22.372-12.916 50.987-5.236 63.914 17.153zm101.208-193.44c-8.373-4.835-11.246-15.532-6.417-23.895 4.828-8.364 15.53-11.224 23.904-6.39 8.373 4.834 11.246 15.532 6.417 23.895-4.828 8.363-15.53 11.224-23.904 6.39zm-811 149c-8.373-4.834-11.246-15.532-6.417-23.895 4.828-8.363 15.53-11.224 23.904-6.39 8.373 4.834 11.246 15.532 6.417 23.894-4.828 8.364-15.53 11.224-23.904 6.39z"/></defs><g><g transform="translate(-1118 -6998)"><use fill="#f4f7f9" xlink:href="#lycua"/></g></g></svg>